<svg xmlns="http://www.w3.org/2000/svg" xmlns:xlink="http://www.w3.org/1999/xlink" style="margin:auto;background:#012c32;display:block;z-index:1;position:relative" width="1600" height="828" preserveAspectRatio="xMidYMid" viewBox="0 0 1600 828">
<g transform="translate(800,414) scale(1,1) translate(-800,-414)"><path d="M-100 481.06C-69.51 500 -70.7 493.8 -41.94 493.8S-11.32 485.89 16.13 485.89S46.49 494.26 74.19 494.26S104.6 496.95 132.26 496.95S163.33 492.37 190.32 492.37S219.55 480.64 248.39 480.64S279.24 485.05 306.45 485.05S337.17 490.6 364.52 490.6S395.55 491.11 422.58 491.11S453.55 496.57 480.65 496.57S511.03 492.25 538.71 492.25S569.23 489.08 596.77 489.08S626.72 491.54 654.84 491.54S684.57 495.62 712.9 495.62S743.88 488.18 770.97 488.18S801.46 495.09 829.03 495.09S858.95 484.34 887.1 484.34S917.48 487.6 945.16 487.6S975.91 492.44 1003.23 492.44S1032.82 488.72 1061.29 488.72S1092.35 483.51 1119.35 483.51S1149.24 491.48 1177.42 491.48S1207.42 482.2 1235.48 482.2S1266.35 490.71 1293.55 490.71S1323.12 480.8 1351.61 480.8S1381.8 499.2 1409.68 499.2S1439.7 487.69 1467.74 487.69S1498.3 489.09 1525.81 489.09S1556.26 494.68 1583.87 494.68S1614.49 487.84 1641.94 487.84S1672.95 495.14 1700 495.14S1730.05 497.99 1758.06 497.99L1700 828 L-100 828 Z" fill="#0f3135" stroke-width="0">
  <animate attributeName="d" dur="25s" repeatCount="indefinite" values="M-100 481.06C-69.51 500 -70.7 493.8 -41.94 493.8S-11.32 485.89 16.13 485.89S46.49 494.26 74.19 494.26S104.6 496.95 132.26 496.95S163.33 492.37 190.32 492.37S219.55 480.64 248.39 480.64S279.24 485.05 306.45 485.05S337.17 490.6 364.52 490.6S395.55 491.11 422.58 491.11S453.55 496.57 480.65 496.57S511.03 492.25 538.71 492.25S569.23 489.08 596.77 489.08S626.72 491.54 654.84 491.54S684.57 495.62 712.9 495.62S743.88 488.18 770.97 488.18S801.46 495.09 829.03 495.09S858.95 484.34 887.1 484.34S917.48 487.6 945.16 487.6S975.91 492.44 1003.23 492.44S1032.82 488.72 1061.29 488.72S1092.35 483.51 1119.35 483.51S1149.24 491.48 1177.42 491.48S1207.42 482.2 1235.48 482.2S1266.35 490.71 1293.55 490.71S1323.12 480.8 1351.61 480.8S1381.8 499.2 1409.68 499.2S1439.7 487.69 1467.74 487.69S1498.3 489.09 1525.81 489.09S1556.26 494.68 1583.87 494.68S1614.49 487.84 1641.94 487.84S1672.95 495.14 1700 495.14S1730.05 497.99 1758.06 497.99L1700 828 L-100 828 Z;M-100 491.24C-69.75 495.65 -69.74 500.04 -41.94 500.04S-11.88 487.72 16.13 487.72S46.46 498.98 74.19 498.98S104.65 496.13 132.26 496.13S163.25 496.86 190.32 496.86S221.29 484.24 248.39 484.24S278.6 497.25 306.45 497.25S336.16 485.29 364.52 485.29S394.18 482.65 422.58 482.65S451.9 495.61 480.65 495.61S511.03 494.54 538.71 494.54S568.02 486.55 596.77 486.55S627.8 485.78 654.84 485.78S683.91 498 712.9 498S743.58 493.22 770.97 493.22S800.9 485.52 829.03 485.52S859.92 494.64 887.1 494.64S916.45 480.29 945.16 480.29S974.79 484.93 1003.23 484.93S1032.45 487.18 1061.29 487.18S1092.34 496.83 1119.35 496.83S1149.3 494.09 1177.42 494.09S1207.98 490.81 1235.48 490.81S1266.53 480.41 1293.55 480.41S1324.24 495.59 1351.61 495.59S1381.12 481.66 1409.68 481.66S1440.34 485.52 1467.74 485.52S1498.57 497.68 1525.81 497.68S1556.81 491.14 1583.87 491.14S1614.9 491.93 1641.94 491.93S1672.2 489.97 1700 489.97S1729.44 485.26 1758.06 485.26L1700 828 L-100 828 Z;M-100 481.06C-69.51 500 -70.7 493.8 -41.94 493.8S-11.32 485.89 16.13 485.89S46.49 494.26 74.19 494.26S104.6 496.95 132.26 496.95S163.33 492.37 190.32 492.37S219.55 480.64 248.39 480.64S279.24 485.05 306.45 485.05S337.17 490.6 364.52 490.6S395.55 491.11 422.58 491.11S453.55 496.57 480.65 496.57S511.03 492.25 538.71 492.25S569.23 489.08 596.77 489.08S626.72 491.54 654.84 491.54S684.57 495.62 712.9 495.62S743.88 488.18 770.97 488.18S801.46 495.09 829.03 495.09S858.95 484.34 887.1 484.34S917.48 487.6 945.16 487.6S975.91 492.44 1003.23 492.44S1032.82 488.72 1061.29 488.72S1092.35 483.51 1119.35 483.51S1149.24 491.48 1177.42 491.48S1207.42 482.2 1235.48 482.2S1266.35 490.71 1293.55 490.71S1323.12 480.8 1351.61 480.8S1381.8 499.2 1409.68 499.2S1439.7 487.69 1467.74 487.69S1498.3 489.09 1525.81 489.09S1556.26 494.68 1583.87 494.68S1614.49 487.84 1641.94 487.84S1672.95 495.14 1700 495.14S1730.05 497.99 1758.06 497.99L1700 828 L-100 828 Z"></animate>
  <animateTransform attributeName="transform" type="translate" dur="25s" begin="0s" repeatCount="indefinite" values="0;10;0" calcMode="spline" keySplines="0.3 0 0.7 1;0.3 0 0.7 1"></animateTransform>
</path><path d="M-100 501.46C-69.6 509.17 -70.03 511.83 -40.4 511.83S-10.53 506.36 19.21 506.36S49.31 511.65 78.81 511.65S109.95 519.14 138.41 519.14S170.25 508.74 198.01 508.74S228.58 515.29 257.62 515.29S289.29 516.86 317.22 516.86S348.48 514.99 376.82 514.99S408.17 508.98 436.42 508.98S468.28 522.76 496.03 522.76S527.53 509.09 555.63 509.09S586.01 509.48 615.23 509.48S647.09 513.98 674.83 513.98S705.62 514.8 734.44 514.8S764.33 520.86 794.04 520.86S824.56 503.08 853.64 503.08S884.16 507.38 913.25 507.38S943.37 515.21 972.85 515.21S1003.9 512.9 1032.45 512.9S1063.06 520.28 1092.05 520.28S1122.67 508.65 1151.66 508.65S1182.04 501.74 1211.26 501.74S1241.53 515.36 1270.86 515.36S1301.28 502.23 1330.46 502.23S1361.64 520.83 1390.07 520.83S1420.1 504.63 1449.67 504.63S1481.04 515.26 1509.27 515.26S1540.38 514.62 1568.87 514.62S1599.66 516.41 1628.48 516.41S1659.01 517.86 1688.08 517.86S1718.57 514.04 1747.68 514.04L1700 828 L-100 828 Z" fill="#254346" stroke-width="0">
  <animate attributeName="d" dur="22.5s" repeatCount="indefinite" values="M-100 501.46C-69.6 509.17 -70.03 511.83 -40.4 511.83S-10.53 506.36 19.21 506.36S49.31 511.65 78.81 511.65S109.95 519.14 138.41 519.14S170.25 508.74 198.01 508.74S228.58 515.29 257.62 515.29S289.29 516.86 317.22 516.86S348.48 514.99 376.82 514.99S408.17 508.98 436.42 508.98S468.28 522.76 496.03 522.76S527.53 509.09 555.63 509.09S586.01 509.48 615.23 509.48S647.09 513.98 674.83 513.98S705.62 514.8 734.44 514.8S764.33 520.86 794.04 520.86S824.56 503.08 853.64 503.08S884.16 507.38 913.25 507.38S943.37 515.21 972.85 515.21S1003.9 512.9 1032.45 512.9S1063.06 520.28 1092.05 520.28S1122.67 508.65 1151.66 508.65S1182.04 501.74 1211.26 501.74S1241.53 515.36 1270.86 515.36S1301.28 502.23 1330.46 502.23S1361.64 520.83 1390.07 520.83S1420.1 504.63 1449.67 504.63S1481.04 515.26 1509.27 515.26S1540.38 514.62 1568.87 514.62S1599.66 516.41 1628.48 516.41S1659.01 517.86 1688.08 517.86S1718.57 514.04 1747.68 514.04L1700 828 L-100 828 Z;M-100 516.3C-68.52 506.3 -70.09 523.73 -40.4 523.73S-9.11 513.95 19.21 513.95S50.58 520.31 78.81 520.31S109.52 513.98 138.41 513.98S169.78 525.63 198.01 525.63S229.84 502.29 257.62 502.29S287.97 517.32 317.22 517.32S347.13 513.94 376.82 513.94S407.85 519.65 436.42 519.65S467.72 515.17 496.03 515.17S526.99 509.5 555.63 509.5S586.16 505.7 615.23 505.7S645.87 513.48 674.83 513.48S705.53 505.72 734.44 505.72S765.82 510.8 794.04 510.8S823.87 501.78 853.64 501.78S884.53 508.9 913.25 508.9S944.45 501.98 972.85 501.98S1004.35 519.84 1032.45 519.84S1064.16 516.68 1092.05 516.68S1122.59 511.59 1151.66 511.59S1182.74 514.9 1211.26 514.9S1242.59 505.68 1270.86 505.68S1300.72 510.43 1330.46 510.43S1360.58 517.28 1390.07 517.28S1421.06 510.79 1449.67 510.79S1480.04 509.28 1509.27 509.28S1540.29 506.64 1568.87 506.64S1599.46 511.12 1628.48 511.12S1658.9 511.08 1688.08 511.08S1719.55 515.76 1747.68 515.76L1700 828 L-100 828 Z;M-100 501.46C-69.6 509.17 -70.03 511.83 -40.4 511.83S-10.53 506.36 19.21 506.36S49.31 511.65 78.81 511.65S109.95 519.14 138.41 519.14S170.25 508.74 198.01 508.74S228.58 515.29 257.62 515.29S289.29 516.86 317.22 516.86S348.48 514.99 376.82 514.99S408.17 508.98 436.42 508.98S468.28 522.76 496.03 522.76S527.53 509.09 555.63 509.09S586.01 509.48 615.23 509.48S647.09 513.98 674.83 513.98S705.62 514.8 734.44 514.8S764.33 520.86 794.04 520.86S824.56 503.08 853.64 503.08S884.16 507.38 913.25 507.38S943.37 515.21 972.85 515.21S1003.9 512.9 1032.45 512.9S1063.06 520.28 1092.05 520.28S1122.67 508.65 1151.66 508.65S1182.04 501.74 1211.26 501.74S1241.53 515.36 1270.86 515.36S1301.28 502.23 1330.46 502.23S1361.64 520.83 1390.07 520.83S1420.1 504.63 1449.67 504.63S1481.04 515.26 1509.27 515.26S1540.38 514.62 1568.87 514.62S1599.66 516.41 1628.48 516.41S1659.01 517.86 1688.08 517.86S1718.57 514.04 1747.68 514.04L1700 828 L-100 828 Z"></animate>
  <animateTransform attributeName="transform" type="translate" dur="22.5s" begin="-2.25s" repeatCount="indefinite" values="0;10;0" calcMode="spline" keySplines="0.3 0 0.7 1;0.3 0 0.7 1"></animateTransform>
</path><path d="M-100 526.47C-68.9 536.9 -68.51 530.83 -38.78 530.83S-7.5 532.08 22.45 532.08S55.03 531.94 83.67 531.94S116.14 529.3 144.9 529.3S177.19 545.27 206.12 545.27S237.48 541.69 267.35 541.69S299.06 549.75 328.57 549.75S360.02 523.92 389.8 523.92S421.36 535.81 451.02 535.81S482.09 541.29 512.24 541.29S543.99 540.82 573.47 540.82S605.09 540.13 634.69 540.13S666.09 529.57 695.92 529.57S726.75 526.92 757.14 526.92S788.18 535.06 818.37 535.06S849.85 535.74 879.59 535.74S910.83 538.4 940.82 538.4S971.82 539.15 1002.04 539.15S1032.8 546.81 1063.27 546.81S1094.93 535.25 1124.49 535.25S1155.2 532.2 1185.71 532.2S1216.4 524.32 1246.94 524.32S1279.62 542.33 1308.16 542.33S1339.27 523.92 1369.39 523.92S1400.44 542.62 1430.61 542.62S1462.83 538.57 1491.84 538.57S1522.78 549.23 1553.06 549.23S1584.52 538.61 1614.29 538.61S1646.8 537.31 1675.51 537.31S1707.81 524.73 1736.73 524.73L1700 828 L-100 828 Z" fill="#3b5658" stroke-width="0">
  <animate attributeName="d" dur="20s" repeatCount="indefinite" values="M-100 526.47C-68.9 536.9 -68.51 530.83 -38.78 530.83S-7.5 532.08 22.45 532.08S55.03 531.94 83.67 531.94S116.14 529.3 144.9 529.3S177.19 545.27 206.12 545.27S237.48 541.69 267.35 541.69S299.06 549.75 328.57 549.75S360.02 523.92 389.8 523.92S421.36 535.81 451.02 535.81S482.09 541.29 512.24 541.29S543.99 540.82 573.47 540.82S605.09 540.13 634.69 540.13S666.09 529.57 695.92 529.57S726.75 526.92 757.14 526.92S788.18 535.06 818.37 535.06S849.85 535.74 879.59 535.74S910.83 538.4 940.82 538.4S971.82 539.15 1002.04 539.15S1032.8 546.81 1063.27 546.81S1094.93 535.25 1124.49 535.25S1155.2 532.2 1185.71 532.2S1216.4 524.32 1246.94 524.32S1279.62 542.33 1308.16 542.33S1339.27 523.92 1369.39 523.92S1400.44 542.62 1430.61 542.62S1462.83 538.57 1491.84 538.57S1522.78 549.23 1553.06 549.23S1584.52 538.61 1614.29 538.61S1646.8 537.31 1675.51 537.31S1707.81 524.73 1736.73 524.73L1700 828 L-100 828 Z;M-100 541.07C-68.24 528 -68.31 532.82 -38.78 532.82S-7.93 526.97 22.45 526.97S54.5 536.87 83.67 536.87S116.15 534.41 144.9 534.41S177.24 535.11 206.12 535.11S237.47 525.79 267.35 525.79S299.56 543.48 328.57 543.48S359.37 536.08 389.8 536.08S422.16 525.47 451.02 525.47S482.68 539.86 512.24 539.86S544.81 531.85 573.47 531.85S605.5 525.48 634.69 525.48S666.84 539.17 695.92 539.17S727.23 536.71 757.14 536.71S789.53 531.59 818.37 531.59S849.11 529.75 879.59 529.75S911.73 533.32 940.82 533.32S972.05 541.02 1002.04 541.02S1034.04 550.22 1063.27 550.22S1095.33 536.33 1124.49 536.33S1156.14 531.68 1185.71 531.68S1216.41 534.73 1246.94 534.73S1277.98 539.09 1308.16 539.09S1339 534 1369.39 534S1401.81 549.28 1430.61 549.28S1461.8 542.05 1491.84 542.05S1523.92 550.08 1553.06 550.08S1585.52 538.99 1614.29 538.99S1645.88 549.03 1675.51 549.03S1707.36 539.25 1736.73 539.25L1700 828 L-100 828 Z;M-100 526.47C-68.9 536.9 -68.51 530.83 -38.78 530.83S-7.5 532.08 22.45 532.08S55.03 531.94 83.67 531.94S116.14 529.3 144.9 529.3S177.19 545.27 206.12 545.27S237.48 541.69 267.35 541.69S299.06 549.75 328.57 549.75S360.02 523.92 389.8 523.92S421.36 535.81 451.02 535.81S482.09 541.29 512.24 541.29S543.99 540.82 573.47 540.82S605.09 540.13 634.69 540.13S666.09 529.57 695.92 529.57S726.75 526.92 757.14 526.92S788.18 535.06 818.37 535.06S849.85 535.74 879.59 535.74S910.83 538.4 940.82 538.4S971.82 539.15 1002.04 539.15S1032.8 546.81 1063.27 546.81S1094.93 535.25 1124.49 535.25S1155.2 532.2 1185.71 532.2S1216.4 524.32 1246.94 524.32S1279.62 542.33 1308.16 542.33S1339.27 523.92 1369.39 523.92S1400.44 542.62 1430.61 542.62S1462.83 538.57 1491.84 538.57S1522.78 549.23 1553.06 549.23S1584.52 538.61 1614.29 538.61S1646.8 537.31 1675.51 537.31S1707.81 524.73 1736.73 524.73L1700 828 L-100 828 Z"></animate>
  <animateTransform attributeName="transform" type="translate" dur="20s" begin="-4s" repeatCount="indefinite" values="0;10;0" calcMode="spline" keySplines="0.3 0 0.7 1;0.3 0 0.7 1"></animateTransform>
</path><path d="M-100 557.42C-68.09 559.84 -67.15 572.7 -37.06 572.7S-3.92 567.97 25.87 567.97S58.65 558.89 88.81 558.89S121.96 558.4 151.75 558.4S183.61 572.34 214.69 572.34S246.48 557.5 277.62 557.5S309.48 563.7 340.56 563.7S372.56 553.85 403.5 553.85S435.46 564.07 466.43 564.07S497.98 558.54 529.37 558.54S562.85 571.03 592.31 571.03S624.39 547.67 655.24 547.67S686.88 558.81 718.18 558.81S749.72 563.04 781.12 563.04S814.14 561.6 844.06 561.6S875.67 548.44 906.99 548.44S939.48 559.9 969.93 559.9S1001.94 551.87 1032.87 551.87S1064.86 571.57 1095.8 571.57S1127.59 556.44 1158.74 556.44S1191.8 558.95 1221.68 558.95S1253.4 562.78 1284.62 562.78S1318.13 559.41 1347.55 559.41S1380.3 562.71 1410.49 562.71S1444.03 560.65 1473.43 560.65S1506.29 560.73 1536.36 560.73S1568 563.04 1599.3 563.04S1631.27 546.82 1662.24 546.82S1693.86 564.93 1725.17 564.93L1700 828 L-100 828 Z" fill="#51696b" stroke-width="0">
  <animate attributeName="d" dur="17.5s" repeatCount="indefinite" values="M-100 557.42C-68.09 559.84 -67.15 572.7 -37.06 572.7S-3.92 567.97 25.87 567.97S58.65 558.89 88.81 558.89S121.96 558.4 151.75 558.4S183.61 572.34 214.69 572.34S246.48 557.5 277.62 557.5S309.48 563.7 340.56 563.7S372.56 553.85 403.5 553.85S435.46 564.07 466.43 564.07S497.98 558.54 529.37 558.54S562.85 571.03 592.31 571.03S624.39 547.67 655.24 547.67S686.88 558.81 718.18 558.81S749.72 563.04 781.12 563.04S814.14 561.6 844.06 561.6S875.67 548.44 906.99 548.44S939.48 559.9 969.93 559.9S1001.94 551.87 1032.87 551.87S1064.86 571.57 1095.8 571.57S1127.59 556.44 1158.74 556.44S1191.8 558.95 1221.68 558.95S1253.4 562.78 1284.62 562.78S1318.13 559.41 1347.55 559.41S1380.3 562.71 1410.49 562.71S1444.03 560.65 1473.43 560.65S1506.29 560.73 1536.36 560.73S1568 563.04 1599.3 563.04S1631.27 546.82 1662.24 546.82S1693.86 564.93 1725.17 564.93L1700 828 L-100 828 Z;M-100 553.35C-68.27 557.98 -68.28 569.19 -37.06 569.19S-4.1 549.91 25.87 549.91S58.87 564.49 88.81 564.49S120.44 553.21 151.75 553.21S184.3 567.71 214.69 567.71S246.24 545.05 277.62 545.05S310.63 568.12 340.56 568.12S372.41 567.46 403.5 567.46S435.81 560.27 466.43 560.27S498.54 551.03 529.37 551.03S562.43 560.57 592.31 560.57S624.36 561.12 655.24 561.12S687.69 564.88 718.18 564.88S750.27 547.95 781.12 547.95S813.63 567.25 844.06 567.25S877.41 550.96 906.99 550.96S938.77 544.44 969.93 544.44S1003.41 570.25 1032.87 570.25S1066.05 547.6 1095.8 547.6S1129.21 560.57 1158.74 560.57S1191.09 559.5 1221.68 559.5S1253.46 547.14 1284.62 547.14S1316.63 561.48 1347.55 561.48S1379.87 561.44 1410.49 561.44S1442.26 556.55 1473.43 556.55S1506.23 563.04 1536.36 563.04S1569.01 570.67 1599.3 570.67S1632.77 569.25 1662.24 569.25S1695.29 556.61 1725.17 556.61L1700 828 L-100 828 Z;M-100 557.42C-68.09 559.84 -67.15 572.7 -37.06 572.7S-3.92 567.97 25.87 567.97S58.65 558.89 88.81 558.89S121.96 558.4 151.75 558.4S183.61 572.34 214.69 572.34S246.48 557.5 277.62 557.5S309.48 563.7 340.56 563.7S372.56 553.85 403.5 553.85S435.46 564.07 466.43 564.07S497.98 558.54 529.37 558.54S562.85 571.03 592.31 571.03S624.39 547.67 655.24 547.67S686.88 558.81 718.18 558.81S749.72 563.04 781.12 563.04S814.14 561.6 844.06 561.6S875.67 548.44 906.99 548.44S939.48 559.9 969.93 559.9S1001.94 551.87 1032.87 551.87S1064.86 571.57 1095.8 571.57S1127.59 556.44 1158.74 556.44S1191.8 558.95 1221.68 558.95S1253.4 562.78 1284.62 562.78S1318.13 559.41 1347.55 559.41S1380.3 562.71 1410.49 562.71S1444.03 560.65 1473.43 560.65S1506.29 560.73 1536.36 560.73S1568 563.04 1599.3 563.04S1631.27 546.82 1662.24 546.82S1693.86 564.93 1725.17 564.93L1700 828 L-100 828 Z"></animate>
  <animateTransform attributeName="transform" type="translate" dur="17.5s" begin="-5.25s" repeatCount="indefinite" values="0;10;0" calcMode="spline" keySplines="0.3 0 0.7 1;0.3 0 0.7 1"></animateTransform>
</path><path d="M-100 590.7C-66.75 586.77 -65.75 583.22 -35.25 583.22S-1.48 565.42 29.5 565.42S63.57 580.1 94.24 580.1S128.56 579.52 158.99 579.52S191.54 586.24 223.74 586.24S256.57 583.54 288.49 583.54S322.22 599.99 353.24 599.99S385.67 570.24 417.99 570.24S452.39 582.44 482.73 582.44S516.89 581.55 547.48 581.55S580.69 586.36 612.23 586.36S645.63 566.49 676.98 566.49S710.19 596.52 741.73 596.52S774.35 577.98 806.47 577.98S839.46 599.72 871.22 599.72S905.62 566.23 935.97 566.23S970 569.81 1000.72 569.81S1033.6 594.61 1065.47 594.61S1098.42 581.34 1130.22 581.34S1163.71 574.67 1194.96 574.67S1229.22 578.9 1259.71 578.9S1293.58 575.69 1324.46 575.69S1357.09 598.78 1389.21 598.78S1421.88 578 1453.96 578S1487.55 595.6 1518.71 595.6S1551.84 573.24 1583.45 573.24S1616.17 593.75 1648.2 593.75S1680.78 578.29 1712.95 578.29L1700 828 L-100 828 Z" fill="#677d7f" stroke-width="0">
  <animate attributeName="d" dur="15s" repeatCount="indefinite" values="M-100 590.7C-66.75 586.77 -65.75 583.22 -35.25 583.22S-1.48 565.42 29.5 565.42S63.57 580.1 94.24 580.1S128.56 579.52 158.99 579.52S191.54 586.24 223.74 586.24S256.57 583.54 288.49 583.54S322.22 599.99 353.24 599.99S385.67 570.24 417.99 570.24S452.39 582.44 482.73 582.44S516.89 581.55 547.48 581.55S580.69 586.36 612.23 586.36S645.63 566.49 676.98 566.49S710.19 596.52 741.73 596.52S774.35 577.98 806.47 577.98S839.46 599.72 871.22 599.72S905.62 566.23 935.97 566.23S970 569.81 1000.72 569.81S1033.6 594.61 1065.47 594.61S1098.42 581.34 1130.22 581.34S1163.71 574.67 1194.96 574.67S1229.22 578.9 1259.71 578.9S1293.58 575.69 1324.46 575.69S1357.09 598.78 1389.21 598.78S1421.88 578 1453.96 578S1487.55 595.6 1518.71 595.6S1551.84 573.24 1583.45 573.24S1616.17 593.75 1648.2 593.75S1680.78 578.29 1712.95 578.29L1700 828 L-100 828 Z;M-100 589.01C-67.04 589.96 -66.98 567.92 -35.25 567.92S-1.26 591.49 29.5 591.49S62 593.18 94.24 593.18S126.82 579.76 158.99 579.76S192.67 593.63 223.74 593.63S257.92 582.62 288.49 582.62S321.86 581.55 353.24 581.55S387.45 567.69 417.99 567.69S450.7 581.23 482.73 581.23S515.11 563.63 547.48 563.63S580.75 597.64 612.23 597.64S646.48 581.59 676.98 581.59S710.08 590.23 741.73 590.23S775.21 575.15 806.47 575.15S840.27 580.32 871.22 580.32S905.23 569.17 935.97 569.17S968.78 587.62 1000.72 587.62S1034.96 574.58 1065.47 574.58S1099.62 579.73 1130.22 579.73S1163.27 569.63 1194.96 569.63S1228.83 596.93 1259.71 596.93S1292.91 570.79 1324.46 570.79S1358.74 587.8 1389.21 587.8S1423.54 573.51 1453.96 573.51S1487.46 581.35 1518.71 581.35S1551.56 580.02 1583.45 580.02S1616.32 597.62 1648.2 597.62S1682.43 568.53 1712.95 568.53L1700 828 L-100 828 Z;M-100 590.7C-66.75 586.77 -65.75 583.22 -35.25 583.22S-1.48 565.42 29.5 565.42S63.57 580.1 94.24 580.1S128.56 579.52 158.99 579.52S191.54 586.24 223.74 586.24S256.57 583.54 288.49 583.54S322.22 599.99 353.24 599.99S385.67 570.24 417.99 570.24S452.39 582.44 482.73 582.44S516.89 581.55 547.48 581.55S580.69 586.36 612.23 586.36S645.63 566.49 676.98 566.49S710.19 596.52 741.73 596.52S774.35 577.98 806.47 577.98S839.46 599.72 871.22 599.72S905.62 566.23 935.97 566.23S970 569.81 1000.72 569.81S1033.6 594.61 1065.47 594.61S1098.42 581.34 1130.22 581.34S1163.71 574.67 1194.96 574.67S1229.22 578.9 1259.71 578.9S1293.58 575.69 1324.46 575.69S1357.09 598.78 1389.21 598.78S1421.88 578 1453.96 578S1487.55 595.6 1518.71 595.6S1551.84 573.24 1583.45 573.24S1616.17 593.75 1648.2 593.75S1680.78 578.29 1712.95 578.29L1700 828 L-100 828 Z"></animate>
  <animateTransform attributeName="transform" type="translate" dur="15s" begin="-6s" repeatCount="indefinite" values="0;10;0" calcMode="spline" keySplines="0.3 0 0.7 1;0.3 0 0.7 1"></animateTransform>
</path><path d="M-100 593.72C-65.05 597.14 -65.72 607.03 -33.33 607.03S0.27 596.33 33.33 596.33S68.45 618.54 100 618.54S135.2 599.38 166.67 599.38S200.04 611.4 233.33 611.4S267.99 589.21 300 589.21S333.58 611.84 366.67 611.84S400.41 585.84 433.33 585.84S467.25 615.49 500 615.49S533.55 592.83 566.67 592.83S600.44 608.09 633.33 608.09S667.4 592.43 700 592.43S734.45 618.08 766.67 618.08S800.98 591.52 833.33 591.52S867.78 624.43 900 624.43S934.51 588.61 966.67 588.61S1000.85 624.06 1033.33 624.06S1067.81 584.89 1100 584.89S1133.53 620.61 1166.67 620.61S1200.57 593.91 1233.33 593.91S1268.52 610.27 1300 610.27S1335.19 595.04 1366.67 595.04S1401.25 610.02 1433.33 610.02S1468.62 586.21 1500 586.21S1533.5 610.9 1566.67 610.9S1601.45 597.02 1633.33 597.02S1666.98 586.24 1700 586.24S1734.24 589.35 1766.67 589.35L1700 828 L-100 828 Z" fill="#7e9193" stroke-width="0">
  <animate attributeName="d" dur="12.5s" repeatCount="indefinite" values="M-100 593.72C-65.05 597.14 -65.72 607.03 -33.33 607.03S0.27 596.33 33.33 596.33S68.45 618.54 100 618.54S135.2 599.38 166.67 599.38S200.04 611.4 233.33 611.4S267.99 589.21 300 589.21S333.58 611.84 366.67 611.84S400.41 585.84 433.33 585.84S467.25 615.49 500 615.49S533.55 592.83 566.67 592.83S600.44 608.09 633.33 608.09S667.4 592.43 700 592.43S734.45 618.08 766.67 618.08S800.98 591.52 833.33 591.52S867.78 624.43 900 624.43S934.51 588.61 966.67 588.61S1000.85 624.06 1033.33 624.06S1067.81 584.89 1100 584.89S1133.53 620.61 1166.67 620.61S1200.57 593.91 1233.33 593.91S1268.52 610.27 1300 610.27S1335.19 595.04 1366.67 595.04S1401.25 610.02 1433.33 610.02S1468.62 586.21 1500 586.21S1533.5 610.9 1566.67 610.9S1601.45 597.02 1633.33 597.02S1666.98 586.24 1700 586.24S1734.24 589.35 1766.67 589.35L1700 828 L-100 828 Z;M-100 598.98C-64.68 589.78 -64.75 619.3 -33.33 619.3S0.72 589.11 33.33 589.11S67.75 608.42 100 608.42S133.93 595.66 166.67 595.66S202.03 611.06 233.33 611.06S268.15 612.74 300 612.74S334.87 615.16 366.67 615.16S400.72 600.32 433.33 600.32S467.91 606.24 500 606.24S534.87 586.28 566.67 586.28S601.57 606.17 633.33 606.17S667.02 593.03 700 593.03S734.59 610.22 766.67 610.22S801.59 592.75 833.33 592.75S868.46 602.88 900 602.88S934.76 598.65 966.67 598.65S1002.03 614.8 1033.33 614.8S1067.91 586.34 1100 586.34S1133.49 606.84 1166.67 606.84S1200.69 602.5 1233.33 602.5S1267.76 622.81 1300 622.81S1334.33 603.01 1366.67 603.01S1401.61 592.64 1433.33 592.64S1467.53 584.39 1500 584.39S1533.81 616.96 1566.67 616.96S1601.92 601.23 1633.33 601.23S1667.56 612.67 1700 612.67S1734.42 585.2 1766.67 585.2L1700 828 L-100 828 Z;M-100 593.72C-65.05 597.14 -65.72 607.03 -33.33 607.03S0.27 596.33 33.33 596.33S68.45 618.54 100 618.54S135.2 599.38 166.67 599.38S200.04 611.4 233.33 611.4S267.99 589.21 300 589.21S333.58 611.84 366.67 611.84S400.41 585.84 433.33 585.84S467.25 615.49 500 615.49S533.55 592.83 566.67 592.83S600.44 608.09 633.33 608.09S667.4 592.43 700 592.43S734.45 618.08 766.67 618.08S800.98 591.52 833.33 591.52S867.78 624.43 900 624.43S934.51 588.61 966.67 588.61S1000.85 624.06 1033.33 624.06S1067.81 584.89 1100 584.89S1133.53 620.61 1166.67 620.61S1200.57 593.91 1233.33 593.91S1268.52 610.27 1300 610.27S1335.19 595.04 1366.67 595.04S1401.25 610.02 1433.33 610.02S1468.62 586.21 1500 586.21S1533.5 610.9 1566.67 610.9S1601.45 597.02 1633.33 597.02S1666.98 586.24 1700 586.24S1734.24 589.35 1766.67 589.35L1700 828 L-100 828 Z"></animate>
  <animateTransform attributeName="transform" type="translate" dur="12.5s" begin="-6.25s" repeatCount="indefinite" values="0;10;0" calcMode="spline" keySplines="0.3 0 0.7 1;0.3 0 0.7 1"></animateTransform>
</path><path d="M-100 649.01C-64.11 634.72 -64.99 631.7 -31.3 631.7S3.25 608.58 37.4 608.58S73.67 645.54 106.11 645.54S141.11 607.86 174.81 607.86S209.54 629.33 243.51 629.33S278.31 622.71 312.21 622.71S346.82 631.45 380.92 631.45S416.73 639.66 449.62 639.66S484.87 645.52 518.32 645.52S552.78 613.95 587.02 613.95S621.82 641.28 655.73 641.28S691.74 608.46 724.43 608.46S759.48 630.96 793.13 630.96S829.48 613.29 861.83 613.29S897.86 638.39 930.53 638.39S965.52 610.98 999.24 610.98S1035.63 630.5 1067.94 630.5S1102.93 608.08 1136.64 608.08S1171.4 644.22 1205.34 644.22S1240.87 611.84 1274.05 611.84S1309.21 632.11 1342.75 632.11S1378.47 616.41 1411.45 616.41S1447.86 632.65 1480.15 632.65S1515.71 606.81 1548.85 606.81S1583.79 621.77 1617.56 621.77S1651.99 609.26 1686.26 609.26S1721.98 636.44 1754.96 636.44L1700 828 L-100 828 Z" fill="#95a6a7" stroke-width="0">
  <animate attributeName="d" dur="10s" repeatCount="indefinite" values="M-100 649.01C-64.11 634.72 -64.99 631.7 -31.3 631.7S3.25 608.58 37.4 608.58S73.67 645.54 106.11 645.54S141.11 607.86 174.81 607.86S209.54 629.33 243.51 629.33S278.31 622.71 312.21 622.71S346.82 631.45 380.92 631.45S416.73 639.66 449.62 639.66S484.87 645.52 518.32 645.52S552.78 613.95 587.02 613.95S621.82 641.28 655.73 641.28S691.74 608.46 724.43 608.46S759.48 630.96 793.13 630.96S829.48 613.29 861.83 613.29S897.86 638.39 930.53 638.39S965.52 610.98 999.24 610.98S1035.63 630.5 1067.94 630.5S1102.93 608.08 1136.64 608.08S1171.4 644.22 1205.34 644.22S1240.87 611.84 1274.05 611.84S1309.21 632.11 1342.75 632.11S1378.47 616.41 1411.45 616.41S1447.86 632.65 1480.15 632.65S1515.71 606.81 1548.85 606.81S1583.79 621.77 1617.56 621.77S1651.99 609.26 1686.26 609.26S1721.98 636.44 1754.96 636.44L1700 828 L-100 828 Z;M-100 631.24C-63.63 642.64 -63.78 643.17 -31.3 643.17S4.49 619.75 37.4 619.75S72.53 638.12 106.11 638.12S140.63 609.98 174.81 609.98S209.54 633.68 243.51 633.68S278.57 622.82 312.21 622.82S348.62 610.95 380.92 610.95S416.79 611.26 449.62 611.26S484.76 642.28 518.32 642.28S554.41 644.21 587.02 644.21S621.43 632.22 655.73 632.22S691.94 614.9 724.43 614.9S760.84 613.88 793.13 613.88S828.99 622.25 861.83 622.25S897.99 631.57 930.53 631.57S966.57 623.75 999.24 623.75S1035 632.47 1067.94 632.47S1103.66 612.75 1136.64 612.75S1172.26 638.67 1205.34 638.67S1240.59 612.13 1274.05 612.13S1310.23 635.01 1342.75 635.01S1378.7 613.23 1411.45 613.23S1446.32 631.44 1480.15 631.44S1514.64 610.82 1548.85 610.82S1584.88 643.82 1617.56 643.82S1653.67 609.41 1686.26 609.41S1721.76 645.42 1754.96 645.42L1700 828 L-100 828 Z;M-100 649.01C-64.11 634.72 -64.99 631.7 -31.3 631.7S3.25 608.58 37.4 608.58S73.67 645.54 106.11 645.54S141.11 607.86 174.81 607.86S209.54 629.33 243.51 629.33S278.31 622.71 312.21 622.71S346.82 631.45 380.92 631.45S416.73 639.66 449.62 639.66S484.87 645.52 518.32 645.52S552.78 613.95 587.02 613.95S621.82 641.28 655.73 641.28S691.74 608.46 724.43 608.46S759.48 630.96 793.13 630.96S829.48 613.29 861.83 613.29S897.86 638.39 930.53 638.39S965.52 610.98 999.24 610.98S1035.63 630.5 1067.94 630.5S1102.93 608.08 1136.64 608.08S1171.4 644.22 1205.34 644.22S1240.87 611.84 1274.05 611.84S1309.21 632.11 1342.75 632.11S1378.47 616.41 1411.45 616.41S1447.86 632.65 1480.15 632.65S1515.71 606.81 1548.85 606.81S1583.79 621.77 1617.56 621.77S1651.99 609.26 1686.26 609.26S1721.98 636.44 1754.96 636.44L1700 828 L-100 828 Z"></animate>
  <animateTransform attributeName="transform" type="translate" dur="10s" begin="-6s" repeatCount="indefinite" values="0;10;0" calcMode="spline" keySplines="0.3 0 0.7 1;0.3 0 0.7 1"></animateTransform>
</path><path d="M-100 627.24C-63.97 630.37 -63.66 668.72 -29.13 668.72S7.69 635.99 41.73 635.99S77.82 656.11 112.6 656.11S149.32 633.63 183.46 633.63S220.51 659.65 254.33 659.65S290.75 642.22 325.2 642.22S360.83 667.04 396.06 667.04S432.02 638.32 466.93 638.32S504.05 657.86 537.8 657.86S574.34 642.74 608.66 642.74S645.5 662.04 679.53 662.04S715.17 643.47 750.39 643.47S787.04 660.03 821.26 660.03S857.7 626.13 892.13 626.13S927.8 663.55 962.99 663.55S999.72 644.35 1033.86 644.35S1070.42 662.95 1104.72 662.95S1140.26 643.53 1175.59 643.53S1211.94 665.26 1246.46 665.26S1282 632.59 1317.32 632.59S1353.02 655.94 1388.19 655.94S1424.44 634.41 1459.06 634.41S1494.68 662.89 1529.92 662.89S1566.77 643.25 1600.79 643.25S1637.56 664.47 1671.65 664.47S1707.99 632.09 1742.52 632.09L1700 828 L-100 828 Z" fill="#adbcbc" stroke-width="0">
  <animate attributeName="d" dur="7.5s" repeatCount="indefinite" values="M-100 627.24C-63.97 630.37 -63.66 668.72 -29.13 668.72S7.69 635.99 41.73 635.99S77.82 656.11 112.6 656.11S149.32 633.63 183.46 633.63S220.51 659.65 254.33 659.65S290.75 642.22 325.2 642.22S360.83 667.04 396.06 667.04S432.02 638.32 466.93 638.32S504.05 657.86 537.8 657.86S574.34 642.74 608.66 642.74S645.5 662.04 679.53 662.04S715.17 643.47 750.39 643.47S787.04 660.03 821.26 660.03S857.7 626.13 892.13 626.13S927.8 663.55 962.99 663.55S999.72 644.35 1033.86 644.35S1070.42 662.95 1104.72 662.95S1140.26 643.53 1175.59 643.53S1211.94 665.26 1246.46 665.26S1282 632.59 1317.32 632.59S1353.02 655.94 1388.19 655.94S1424.44 634.41 1459.06 634.41S1494.68 662.89 1529.92 662.89S1566.77 643.25 1600.79 643.25S1637.56 664.47 1671.65 664.47S1707.99 632.09 1742.52 632.09L1700 828 L-100 828 Z;M-100 635.91C-64.26 641.52 -62.63 669.84 -29.13 669.84S8.2 644.77 41.73 644.77S77.21 663.91 112.6 663.91S149.69 673.48 183.46 673.48S219.77 673.25 254.33 673.25S290.71 639.74 325.2 639.74S360.87 655.73 396.06 655.73S431.92 635.29 466.93 635.29S503.48 659.9 537.8 659.9S573.52 637.66 608.66 637.66S644.91 668.36 679.53 668.36S716.43 627.79 750.39 627.79S786.74 630.41 821.26 630.41S857.03 645.35 892.13 645.35S929.55 671.48 962.99 671.48S998.57 626.84 1033.86 626.84S1070.49 667.47 1104.72 667.47S1142.11 636.1 1175.59 636.1S1211.89 665.11 1246.46 665.11S1283.27 627.1 1317.32 627.1S1353.05 669.23 1388.19 669.23S1424.8 638.52 1459.06 638.52S1495.08 664.61 1529.92 664.61S1566.9 627.56 1600.79 627.56S1638.2 655.46 1671.65 655.46S1707.16 635.86 1742.52 635.86L1700 828 L-100 828 Z;M-100 627.24C-63.97 630.37 -63.66 668.72 -29.13 668.72S7.69 635.99 41.73 635.99S77.82 656.11 112.6 656.11S149.32 633.63 183.46 633.63S220.51 659.65 254.33 659.65S290.75 642.22 325.2 642.22S360.83 667.04 396.06 667.04S432.02 638.32 466.93 638.32S504.05 657.86 537.8 657.86S574.34 642.74 608.66 642.74S645.5 662.04 679.53 662.04S715.17 643.47 750.39 643.47S787.04 660.03 821.26 660.03S857.7 626.13 892.13 626.13S927.8 663.55 962.99 663.55S999.72 644.35 1033.86 644.35S1070.42 662.95 1104.72 662.95S1140.26 643.53 1175.59 643.53S1211.94 665.26 1246.46 665.26S1282 632.59 1317.32 632.59S1353.02 655.94 1388.19 655.94S1424.44 634.41 1459.06 634.41S1494.68 662.89 1529.92 662.89S1566.77 643.25 1600.79 643.25S1637.56 664.47 1671.65 664.47S1707.99 632.09 1742.52 632.09L1700 828 L-100 828 Z"></animate>
  <animateTransform attributeName="transform" type="translate" dur="7.5s" begin="-5.25s" repeatCount="indefinite" values="0;10;0" calcMode="spline" keySplines="0.3 0 0.7 1;0.3 0 0.7 1"></animateTransform>
</path><path d="M-100 697.3C-61.91 680.19 -63.37 681.57 -26.83 681.57S10.54 659.37 46.34 659.37S84.6 697.54 119.51 697.54S157.53 655.15 192.68 655.15S229.97 681.09 265.85 681.09S302.73 656.2 339.02 656.2S375.79 679.84 412.2 679.84S450.51 652.55 485.37 652.55S522.87 686.19 558.54 686.19S595.33 655.66 631.71 655.66S669.67 691.25 704.88 691.25S742.48 682 778.05 682S815.82 690.2 851.22 690.2S888.48 647.89 924.39 647.89S961.25 698.45 997.56 698.45S1034.6 657.77 1070.73 657.77S1107.32 682.2 1143.9 682.2S1181.72 663.17 1217.07 663.17S1255.18 695.58 1290.24 695.58S1327.35 656.8 1363.41 656.8S1400.3 662.21 1436.59 662.21S1474.54 645.94 1509.76 645.94S1547.14 697.24 1582.93 697.24S1620.39 664.32 1656.1 664.32S1693.07 689.89 1729.27 689.89L1700 828 L-100 828 Z" fill="#c6d2d2" stroke-width="0">
  <animate attributeName="d" dur="5s" repeatCount="indefinite" values="M-100 697.3C-61.91 680.19 -63.37 681.57 -26.83 681.57S10.54 659.37 46.34 659.37S84.6 697.54 119.51 697.54S157.53 655.15 192.68 655.15S229.97 681.09 265.85 681.09S302.73 656.2 339.02 656.2S375.79 679.84 412.2 679.84S450.51 652.55 485.37 652.55S522.87 686.19 558.54 686.19S595.33 655.66 631.71 655.66S669.67 691.25 704.88 691.25S742.48 682 778.05 682S815.82 690.2 851.22 690.2S888.48 647.89 924.39 647.89S961.25 698.45 997.56 698.45S1034.6 657.77 1070.73 657.77S1107.32 682.2 1143.9 682.2S1181.72 663.17 1217.07 663.17S1255.18 695.58 1290.24 695.58S1327.35 656.8 1363.41 656.8S1400.3 662.21 1436.59 662.21S1474.54 645.94 1509.76 645.94S1547.14 697.24 1582.93 697.24S1620.39 664.32 1656.1 664.32S1693.07 689.89 1729.27 689.89L1700 828 L-100 828 Z;M-100 691.7C-62.58 699.29 -63.35 685.67 -26.83 685.67S9.84 650.11 46.34 650.11S83.65 697.04 119.51 697.04S156.62 655.06 192.68 655.06S231.23 681.26 265.85 681.26S303.44 651.03 339.02 651.03S375.83 681.08 412.2 681.08S450.21 666.18 485.37 666.18S522.72 685.14 558.54 685.14S595.2 646.78 631.71 646.78S670.28 651.14 704.88 651.14S743.27 658.2 778.05 658.2S816.52 688.87 851.22 688.87S888.93 659.12 924.39 659.12S962.29 692.27 997.56 692.27S1034.6 665.67 1070.73 665.67S1108.52 688.75 1143.9 688.75S1180.8 647.76 1217.07 647.76S1253.75 694.67 1290.24 694.67S1327.26 659.03 1363.41 659.03S1400.78 698.01 1436.59 698.01S1474.62 657.94 1509.76 657.94S1546.98 696.19 1582.93 696.19S1621.22 646.51 1656.1 646.51S1694.63 646.41 1729.27 646.41L1700 828 L-100 828 Z;M-100 697.3C-61.91 680.19 -63.37 681.57 -26.83 681.57S10.54 659.37 46.34 659.37S84.6 697.54 119.51 697.54S157.53 655.15 192.68 655.15S229.97 681.09 265.85 681.09S302.73 656.2 339.02 656.2S375.79 679.84 412.2 679.84S450.51 652.55 485.37 652.55S522.87 686.19 558.54 686.19S595.33 655.66 631.71 655.66S669.67 691.25 704.88 691.25S742.48 682 778.05 682S815.82 690.2 851.22 690.2S888.48 647.89 924.39 647.89S961.25 698.45 997.56 698.45S1034.6 657.77 1070.73 657.77S1107.32 682.2 1143.9 682.2S1181.72 663.17 1217.07 663.17S1255.18 695.58 1290.24 695.58S1327.35 656.8 1363.41 656.8S1400.3 662.21 1436.59 662.21S1474.54 645.94 1509.76 645.94S1547.14 697.24 1582.93 697.24S1620.39 664.32 1656.1 664.32S1693.07 689.89 1729.27 689.89L1700 828 L-100 828 Z"></animate>
  <animateTransform attributeName="transform" type="translate" dur="5s" begin="-4s" repeatCount="indefinite" values="0;10;0" calcMode="spline" keySplines="0.3 0 0.7 1;0.3 0 0.7 1"></animateTransform>
</path><path d="M-100 678.92C-61.84 674.06 -61.04 714.68 -24.37 714.68S14.47 675.71 51.26 675.71S90.56 721.9 126.89 721.9S165.55 683.96 202.52 683.96S241.86 682.97 278.15 682.97S317.67 670.54 353.78 670.54S391.67 703.84 429.41 703.84S467.48 718.64 505.04 718.64S543.71 713.94 580.67 713.94S618.86 668.25 656.3 668.25S694.36 722.34 731.93 722.34S770.63 717.32 807.56 717.32S847.16 674.54 883.19 674.54S923.02 681.87 958.82 681.87S997.96 723.59 1034.45 723.59S1073.51 676.6 1110.08 676.6S1147.91 705.85 1185.71 705.85S1223.81 682.44 1261.34 682.44S1300.89 721.56 1336.97 721.56S1376.03 670.69 1412.61 670.69S1450.89 711.49 1488.24 711.49S1526.06 670.73 1563.87 670.73S1602.76 719.44 1639.5 719.44S1677.45 668.91 1715.13 668.91L1700 828 L-100 828 Z" fill="#dfe8e8" stroke-width="0">
  <animate attributeName="d" dur="2.5s" repeatCount="indefinite" values="M-100 678.92C-61.84 674.06 -61.04 714.68 -24.37 714.68S14.47 675.71 51.26 675.71S90.56 721.9 126.89 721.9S165.55 683.96 202.52 683.96S241.86 682.97 278.15 682.97S317.67 670.54 353.78 670.54S391.67 703.84 429.41 703.84S467.48 718.64 505.04 718.64S543.71 713.94 580.67 713.94S618.86 668.25 656.3 668.25S694.36 722.34 731.93 722.34S770.63 717.32 807.56 717.32S847.16 674.54 883.19 674.54S923.02 681.87 958.82 681.87S997.96 723.59 1034.45 723.59S1073.51 676.6 1110.08 676.6S1147.91 705.85 1185.71 705.85S1223.81 682.44 1261.34 682.44S1300.89 721.56 1336.97 721.56S1376.03 670.69 1412.61 670.69S1450.89 711.49 1488.24 711.49S1526.06 670.73 1563.87 670.73S1602.76 719.44 1639.5 719.44S1677.45 668.91 1715.13 668.91L1700 828 L-100 828 Z;M-100 669.06C-61.6 678.73 -61.09 708.54 -24.37 708.54S13.55 679.66 51.26 679.66S89.47 707.46 126.89 707.46S165.67 683.41 202.52 683.41S240.41 719.75 278.15 719.75S317.16 722.1 353.78 722.1S391.95 723.5 429.41 723.5S468.3 670.53 505.04 670.53S543.85 713.86 580.67 713.86S618.93 680.32 656.3 680.32S694.96 667.24 731.93 667.24S771.67 685.14 807.56 685.14S846.57 715.36 883.19 715.36S921.59 679.39 958.82 679.39S997.53 718.7 1034.45 718.7S1073.06 670.28 1110.08 670.28S1148.69 718.03 1185.71 718.03S1224.4 668.14 1261.34 668.14S1301.07 707.37 1336.97 707.37S1375.25 668.72 1412.61 668.72S1452.16 721.84 1488.24 721.84S1526.81 686.32 1563.87 686.32S1602.83 683.77 1639.5 683.77S1677.7 680.12 1715.13 680.12L1700 828 L-100 828 Z;M-100 678.92C-61.84 674.06 -61.04 714.68 -24.37 714.68S14.47 675.71 51.26 675.71S90.56 721.9 126.89 721.9S165.55 683.96 202.52 683.96S241.86 682.97 278.15 682.97S317.67 670.54 353.78 670.54S391.67 703.84 429.41 703.84S467.48 718.64 505.04 718.64S543.71 713.94 580.67 713.94S618.86 668.25 656.3 668.25S694.36 722.34 731.93 722.34S770.63 717.32 807.56 717.32S847.16 674.54 883.19 674.54S923.02 681.87 958.82 681.87S997.96 723.59 1034.45 723.59S1073.51 676.6 1110.08 676.6S1147.91 705.85 1185.71 705.85S1223.81 682.44 1261.34 682.44S1300.89 721.56 1336.97 721.56S1376.03 670.69 1412.61 670.69S1450.89 711.49 1488.24 711.49S1526.06 670.73 1563.87 670.73S1602.76 719.44 1639.5 719.44S1677.45 668.91 1715.13 668.91L1700 828 L-100 828 Z"></animate>
  <animateTransform attributeName="transform" type="translate" dur="2.5s" begin="-2.25s" repeatCount="indefinite" values="0;10;0" calcMode="spline" keySplines="0.3 0 0.7 1;0.3 0 0.7 1"></animateTransform>
</path></g>
</svg>