<svg width="512" height="512" viewBox="0 0 512 512" fill="none" xmlns="http://www.w3.org/2000/svg">
<rect width="512" height="512" rx="50" fill="white"/>
<path d="M386.905 256L357.857 222.786L361.905 178.857L318.929 169.095L296.429 131L255.952 148.381L215.476 131L192.976 168.976L150 178.619L154.048 222.667L125 256L154.048 289.214L150 333.262L192.976 343.024L215.476 381L255.952 363.5L296.429 380.881L318.929 342.905L361.905 333.143L357.857 289.214L386.905 256ZM233.214 312.19L187.976 266.833L205.595 249.214L233.214 276.952L302.857 207.071L320.476 224.69L233.214 312.19V312.19Z" fill="#0094FF"/>
</svg>
